<svg width="1640" height="720" viewBox="0 0 1640 720" fill="none" xmlns="http://www.w3.org/2000/svg">
<rect width="1640" height="720" fill="#0A110E"/>
<path d="M133.56 279.64H186.6L226.68 397.48H227.16L265.08 279.64H318.12V451H282.84V329.56H282.36L240.36 451H211.32L169.32 330.76H168.84V451H133.56V279.64Z" fill="#EF9F27"/>
<path d="M347.694 365.08C348.174 357.88 349.694 351.64 352.254 346.36C354.814 341.08 358.254 336.76 362.574 333.4C367.054 330.04 372.254 327.56 378.174 325.96C384.094 324.36 390.654 323.56 397.854 323.56C403.294 323.56 408.734 324.12 414.174 325.24C419.614 326.2 424.494 328.12 428.814 331C433.134 333.88 436.654 337.96 439.374 343.24C442.094 348.36 443.454 355.08 443.454 363.4V429.16C443.454 435.24 446.414 438.28 452.334 438.28C454.094 438.28 455.694 437.96 457.134 437.32V450.04C455.374 450.36 453.774 450.6 452.334 450.76C451.054 450.92 449.374 451 447.294 451C443.454 451 440.334 450.52 437.934 449.56C435.694 448.44 433.934 446.92 432.654 445C431.374 443.08 430.494 440.84 430.014 438.28C429.694 435.56 429.534 432.6 429.534 429.4H429.054C426.334 433.4 423.534 437 420.654 440.2C417.934 443.24 414.814 445.8 411.294 447.88C407.934 449.96 404.014 451.56 399.534 452.68C395.214 453.8 390.014 454.36 383.934 454.36C378.174 454.36 372.734 453.64 367.614 452.2C362.654 450.92 358.254 448.84 354.414 445.96C350.734 442.92 347.774 439.16 345.534 434.68C343.454 430.04 342.414 424.6 342.414 418.36C342.414 409.72 344.334 403 348.174 398.2C352.014 393.24 357.054 389.48 363.294 386.92C369.694 384.36 376.814 382.6 384.654 381.64C392.654 380.52 400.734 379.48 408.894 378.52C412.094 378.2 414.894 377.8 417.294 377.32C419.694 376.84 421.694 376.04 423.294 374.92C424.894 373.64 426.094 371.96 426.894 369.88C427.854 367.8 428.334 365.08 428.334 361.72C428.334 356.6 427.454 352.44 425.694 349.24C424.094 345.88 421.774 343.24 418.734 341.32C415.854 339.4 412.414 338.12 408.414 337.48C404.574 336.68 400.414 336.28 395.934 336.28C386.334 336.28 378.494 338.6 372.414 343.24C366.334 347.72 363.134 355 362.814 365.08H347.694ZM428.334 383.32H427.854C426.894 385.08 425.054 386.36 422.334 387.16C419.614 387.96 417.214 388.52 415.134 388.84C408.734 389.96 402.094 391 395.214 391.96C388.494 392.76 382.334 394.04 376.734 395.8C371.134 397.56 366.494 400.12 362.814 403.48C359.294 406.68 357.534 411.32 357.534 417.4C357.534 421.24 358.254 424.68 359.694 427.72C361.294 430.6 363.374 433.16 365.934 435.4C368.494 437.48 371.454 439.08 374.814 440.2C378.174 441.32 381.614 441.88 385.134 441.88C390.894 441.88 396.414 441 401.694 439.24C406.974 437.48 411.534 434.92 415.374 431.56C419.374 428.2 422.494 424.12 424.734 419.32C427.134 414.52 428.334 409.08 428.334 403V383.32ZM473.588 327.16H487.508V356.2H487.988C491.828 346.12 497.748 338.36 505.748 332.92C513.908 327.48 523.588 325 534.788 325.48V340.6C527.908 340.28 521.668 341.24 516.068 343.48C510.468 345.56 505.588 348.6 501.428 352.6C497.428 356.6 494.308 361.4 492.068 367C489.828 372.44 488.708 378.44 488.708 385V451H473.588V327.16ZM634.112 380.44C633.952 374.68 632.912 369.16 630.992 363.88C629.232 358.6 626.672 353.96 623.312 349.96C619.952 345.8 615.872 342.52 611.072 340.12C606.272 337.56 600.832 336.28 594.752 336.28C588.512 336.28 582.992 337.56 578.192 340.12C573.392 342.52 569.312 345.8 565.952 349.96C562.592 353.96 559.872 358.68 557.792 364.12C555.872 369.4 554.592 374.84 553.952 380.44H634.112ZM553.952 393.16C553.952 398.6 554.672 404.28 556.112 410.2C557.712 415.96 560.192 421.16 563.552 425.8C566.912 430.44 571.152 434.28 576.272 437.32C581.392 440.36 587.552 441.88 594.752 441.88C605.792 441.88 614.432 439 620.672 433.24C626.912 427.48 631.232 419.8 633.632 410.2H648.752C645.552 424.28 639.632 435.16 630.992 442.84C622.512 450.52 610.432 454.36 594.752 454.36C584.992 454.36 576.512 452.68 569.312 449.32C562.272 445.8 556.512 441.08 552.032 435.16C547.552 429.08 544.192 422.12 541.952 414.28C539.872 406.28 538.832 397.88 538.832 389.08C538.832 380.92 539.872 372.92 541.952 365.08C544.192 357.24 547.552 350.28 552.032 344.2C556.512 337.96 562.272 333 569.312 329.32C576.512 325.48 584.992 323.56 594.752 323.56C604.672 323.56 613.152 325.56 620.192 329.56C627.232 333.56 632.912 338.84 637.232 345.4C641.712 351.8 644.912 359.24 646.832 367.72C648.752 376.04 649.552 384.52 649.232 393.16H553.952ZM955.493 441.88C963.813 441.88 971.093 439.8 977.333 435.64C983.733 431.32 989.013 425.88 993.173 419.32C997.493 412.76 1000.69 405.56 1002.77 397.72C1005.01 389.88 1006.13 382.36 1006.13 375.16C1006.13 363.64 1003.09 354.28 997.013 347.08C990.933 339.88 981.813 336.28 969.653 336.28C961.333 336.28 953.973 338.36 947.573 342.52C941.173 346.52 935.813 351.72 931.492 358.12C927.173 364.36 923.893 371.4 921.653 379.24C919.413 386.92 918.293 394.36 918.293 401.56C918.293 413.56 921.333 423.32 927.413 430.84C933.493 438.2 942.853 441.88 955.493 441.88ZM972.293 323.56C979.493 323.56 986.053 324.68 991.973 326.92C998.053 329 1003.25 332.12 1007.57 336.28C1011.89 340.44 1015.25 345.56 1017.65 351.64C1020.05 357.56 1021.25 364.36 1021.25 372.04C1021.25 382.44 1019.81 392.6 1016.93 402.52C1014.05 412.44 1009.73 421.24 1003.97 428.92C998.373 436.6 991.253 442.76 982.613 447.4C974.133 452.04 964.133 454.36 952.613 454.36C936.613 454.36 924.373 449.72 915.893 440.44C907.413 431.16 903.173 418.68 903.173 403C903.173 392.92 904.693 383.08 907.732 373.48C910.773 363.88 915.253 355.4 921.173 348.04C927.093 340.68 934.293 334.76 942.773 330.28C951.413 325.8 961.253 323.56 972.293 323.56ZM1048.05 410.68C1048.05 416.76 1049.01 421.8 1050.93 425.8C1053.01 429.8 1055.65 433 1058.85 435.4C1062.21 437.8 1065.97 439.48 1070.13 440.44C1074.45 441.4 1078.77 441.88 1083.09 441.88C1086.45 441.88 1089.97 441.48 1093.65 440.68C1097.33 439.72 1100.69 438.36 1103.73 436.6C1106.77 434.68 1109.25 432.28 1111.17 429.4C1113.25 426.52 1114.29 423.08 1114.29 419.08C1114.29 414.92 1113.25 411.48 1111.17 408.76C1109.25 406.04 1106.69 403.72 1103.49 401.8C1100.45 399.72 1096.93 397.96 1092.93 396.52C1088.93 394.92 1084.93 393.32 1080.93 391.72C1076.93 390.12 1072.93 388.44 1068.93 386.68C1064.93 384.76 1061.33 382.52 1058.13 379.96C1055.09 377.24 1052.61 374.12 1050.69 370.6C1048.77 366.92 1047.81 362.52 1047.81 357.4C1047.81 351.32 1049.25 346.2 1052.13 342.04C1055.01 337.72 1058.69 334.2 1063.17 331.48C1067.65 328.76 1072.61 326.76 1078.05 325.48C1083.49 324.2 1088.69 323.56 1093.65 323.56C1100.21 323.56 1106.21 324.28 1111.65 325.72C1117.09 327.16 1121.73 329.48 1125.57 332.68C1129.57 335.88 1132.61 340.04 1134.69 345.16C1136.93 350.12 1137.97 356.2 1137.81 363.4H1122.69C1123.01 358.6 1122.45 354.52 1121.01 351.16C1119.57 347.8 1117.49 345 1114.77 342.76C1112.21 340.52 1109.09 338.92 1105.41 337.96C1101.73 336.84 1097.81 336.28 1093.65 336.28C1090.29 336.28 1086.77 336.6 1083.09 337.24C1079.57 337.88 1076.29 339 1073.25 340.6C1070.37 342.04 1067.89 344.12 1065.81 346.84C1063.89 349.56 1062.93 353.08 1062.93 357.4C1062.93 360.28 1063.65 362.84 1065.09 365.08C1066.53 367.32 1068.45 369.32 1070.85 371.08C1073.25 372.84 1075.97 374.44 1079.01 375.88C1082.21 377.32 1085.57 378.76 1089.09 380.2C1093.41 381.96 1097.89 383.8 1102.53 385.72C1107.33 387.48 1111.65 389.72 1115.49 392.44C1119.49 395.16 1122.77 398.44 1125.33 402.28C1128.05 406.12 1129.41 410.92 1129.41 416.68C1129.41 423.72 1127.89 429.64 1124.85 434.44C1121.97 439.24 1118.13 443.16 1113.33 446.2C1108.53 449.08 1103.17 451.16 1097.25 452.44C1091.33 453.72 1085.41 454.36 1079.49 454.36C1073.41 454.36 1067.49 453.56 1061.73 451.96C1056.13 450.36 1051.17 447.8 1046.85 444.28C1042.53 440.76 1039.09 436.28 1036.53 430.84C1033.97 425.24 1032.85 418.52 1033.17 410.68H1048.05ZM1172.72 327.16H1186.64L1181.84 348.76L1182.32 349.24C1186.8 342.04 1192.88 335.96 1200.56 331C1208.24 326.04 1216.72 323.56 1226 323.56C1234.64 323.56 1241.6 325.8 1246.88 330.28C1252.16 334.6 1255.2 341.16 1256 349.96H1256.48C1261.28 342.28 1267.36 335.96 1274.72 331C1282.24 326.04 1290.64 323.56 1299.92 323.56C1311.92 323.56 1320.64 326.6 1326.08 332.68C1331.52 338.76 1334.24 346.6 1334.24 356.2C1334.24 358.44 1334.08 360.76 1333.76 363.16C1333.44 365.4 1333.04 367.8 1332.56 370.36L1315.28 451H1300.16L1317.68 369.88C1318.64 365.56 1319.12 361.4 1319.12 357.4C1319.12 351.32 1317.2 346.28 1313.36 342.28C1309.68 338.28 1303.76 336.28 1295.6 336.28C1289.04 336.28 1283.28 337.8 1278.32 340.84C1273.52 343.88 1269.28 348.04 1265.6 353.32C1262.08 358.44 1259.12 364.52 1256.72 371.56C1254.32 378.44 1252.24 385.88 1250.48 393.88L1238.24 451H1223.12L1240.4 370.36C1241.36 366.2 1241.84 362.2 1241.84 358.36C1241.84 352.28 1240.16 347.08 1236.8 342.76C1233.6 338.44 1228.32 336.28 1220.96 336.28C1215.52 336.28 1210.32 337.64 1205.36 340.36C1200.4 343.08 1195.92 346.76 1191.92 351.4C1187.92 356.04 1184.4 361.56 1181.36 367.96C1178.48 374.2 1176.24 380.92 1174.64 388.12L1161.2 451H1146.32L1172.72 327.16ZM1382.96 279.64H1398.08L1392.8 303.88H1377.68L1382.96 279.64ZM1372.64 327.16H1387.76L1361.12 451H1346.24L1372.64 327.16ZM1416.94 327.16H1430.86L1426.54 349.72H1427.02C1431.66 342.36 1437.82 336.2 1445.5 331.24C1453.34 326.12 1461.9 323.56 1471.18 323.56C1476.62 323.56 1481.58 324.2 1486.06 325.48C1490.7 326.76 1494.7 328.76 1498.06 331.48C1501.42 334.04 1503.98 337.48 1505.74 341.8C1507.66 345.96 1508.62 351 1508.62 356.92C1508.62 360.28 1507.98 365.16 1506.7 371.56L1489.66 451H1474.54L1491.82 371.08C1492.3 369.16 1492.7 367.16 1493.02 365.08C1493.34 362.84 1493.5 360.68 1493.5 358.6C1493.5 354.44 1492.78 351 1491.34 348.28C1489.9 345.4 1487.98 343.08 1485.58 341.32C1483.18 339.56 1480.38 338.28 1477.18 337.48C1474.14 336.68 1470.94 336.28 1467.58 336.28C1462.14 336.28 1456.86 337.48 1451.74 339.88C1446.62 342.28 1441.9 345.72 1437.58 350.2C1433.26 354.52 1429.5 359.88 1426.3 366.28C1423.1 372.52 1420.7 379.56 1419.1 387.4L1405.42 451H1390.54L1416.94 327.16Z" fill="white"/>
<path d="M852.722 337.24C852.082 332.92 850.642 329 848.402 325.48C846.162 321.8 843.362 318.6 840.002 315.88C836.642 313.16 832.802 311.08 828.482 309.64C824.322 308.04 819.922 307.24 815.282 307.24C806.802 307.24 799.602 308.92 793.682 312.28C787.762 315.48 782.962 319.88 779.282 325.48C775.602 330.92 772.882 337.16 771.122 344.2C769.522 351.24 768.722 358.52 768.722 366.04C768.722 373.24 769.522 380.28 771.122 387.16C772.882 393.88 775.602 399.96 779.282 405.4C782.962 410.84 787.762 415.24 793.682 418.6C799.602 421.8 806.802 423.4 815.282 423.4C826.802 423.4 835.762 419.88 842.162 412.84C848.722 405.8 852.722 396.52 854.162 385H890.642C889.682 395.72 887.202 405.4 883.202 414.04C879.202 422.68 873.922 430.04 867.362 436.12C860.802 442.2 853.122 446.84 844.322 450.04C835.522 453.24 825.842 454.84 815.282 454.84C802.162 454.84 790.322 452.6 779.762 448.12C769.362 443.48 760.562 437.16 753.362 429.16C746.162 421.16 740.642 411.8 736.802 401.08C732.962 390.2 731.042 378.52 731.042 366.04C731.042 353.24 732.962 341.4 736.802 330.52C740.642 319.48 746.162 309.88 753.362 301.72C760.562 293.56 769.362 287.16 779.762 282.52C790.322 277.88 802.162 275.56 815.282 275.56C824.722 275.56 833.602 276.92 841.922 279.64C850.402 282.36 857.922 286.36 864.482 291.64C871.202 296.76 876.722 303.16 881.042 310.84C885.362 318.52 888.082 327.32 889.202 337.24H852.722Z" fill="#1D9E75"/>
</svg>
